<svg xmlns="http://www.w3.org/2000/svg" width="1200" height="760" viewBox="0 0 1200 760"><rect width="100%" height="100%" fill="#F6F8FA"/><style>text{font-family:DejaVu Sans,Arial,sans-serif;fill:#18212F}.title{font-size:32px;font-weight:700}.head{font-size:25px;font-weight:700}.label{font-size:23px}.small{font-size:20px}.panel{fill:#fff;stroke:#C7D0DB;stroke-width:1.2}.service{stroke:#009E73;stroke-width:3}.logistics{stroke:#7A8798;stroke-width:2.2}.comm{stroke:#0072B2;stroke-width:1.4;stroke-dasharray:6 4}.emergency{stroke:#D55E00;stroke-width:5}</style><text x="28" y="36" class="title">ThermoHITL v4 operator replay — utility restoration — step 7</text><text x="28" y="58" class="small">Simulated operator · development evidence · authorized payload only</text><rect x="24" y="78" width="575" height="505" rx="8" class="panel"/><text x="44" y="108" class="head">Multilayer network</text><line x1="130.1" y1="411.7" x2="235.1" y2="480.7" class="service"/><line x1="130.1" y1="411.7" x2="364.9" y2="119.3" class="service"/><line x1="235.1" y1="480.7" x2="364.9" y2="480.7" class="service"/><line x1="364.9" y1="119.3" x2="469.9" y2="188.3" class="service"/><line x1="469.9" y1="188.3" x2="510.0" y2="300.0" class="service"/><line x1="235.1" y1="119.3" x2="130.1" y2="411.7" class="logistics"/><line x1="130.1" y1="411.7" x2="469.9" y2="411.7" class="logistics"/><line x1="130.1" y1="411.7" x2="130.1" y2="188.3" class="logistics"/><line x1="364.9" y1="480.7" x2="90.0" y2="300.0" class="logistics"/><line x1="90.0" y1="300.0" x2="469.9" y2="188.3" class="logistics"/><line x1="90.0" y1="300.0" x2="510.0" y2="300.0" class="logistics"/><line x1="235.1" y1="119.3" x2="130.1" y2="411.7" class="comm"/><line x1="235.1" y1="119.3" x2="364.9" y2="480.7" class="comm"/><line x1="130.1" y1="411.7" x2="235.1" y2="480.7" class="comm"/><line x1="235.1" y1="480.7" x2="364.9" y2="480.7" class="comm"/><line x1="364.9" y1="480.7" x2="469.9" y2="411.7" class="comm"/><line x1="364.9" y1="119.3" x2="90.0" y2="300.0" class="comm"/><line x1="90.0" y1="300.0" x2="130.1" y2="188.3" class="comm"/><line x1="90.0" y1="300.0" x2="510.0" y2="300.0" class="comm"/><line x1="130.1" y1="188.3" x2="469.9" y2="188.3" class="comm"/><line x1="469.9" y1="188.3" x2="510.0" y2="300.0" class="comm"/><circle cx="142.5" cy="195.5" r="35" fill="none" stroke="#E69F00" stroke-width="3" stroke-dasharray="none"/><circle cx="447.0" cy="186.0" r="35" fill="none" stroke="#E69F00" stroke-width="3" stroke-dasharray="none"/><circle cx="310.5" cy="448.2" r="35" fill="none" stroke="#E69F00" stroke-width="3" stroke-dasharray="none"/><circle cx="510.0" cy="300.0" r="20" fill="#56B4E9" stroke="#18212F" stroke-width="2"/><text x="510.0" y="338.0" text-anchor="middle" class="small">Zone 01</text><text x="510.0" y="304.0" text-anchor="middle" class="small">L4</text><circle cx="469.9" cy="188.3" r="20" fill="#56B4E9" stroke="#18212F" stroke-width="2"/><text x="469.9" y="226.3" text-anchor="middle" class="small">Sub 02</text><text x="469.9" y="192.3" text-anchor="middle" class="small">L4</text><circle cx="364.9" cy="119.3" r="20" fill="#56B4E9" stroke="#18212F" stroke-width="2"/><text x="364.9" y="157.3" text-anchor="middle" class="small">MG 03</text><text x="364.9" y="123.3" text-anchor="middle" class="small">L4</text><circle cx="235.1" cy="119.3" r="20" fill="#56B4E9" stroke="#18212F" stroke-width="2"/><text x="235.1" y="157.3" text-anchor="middle" class="small">Crew 04</text><text x="235.1" y="123.3" text-anchor="middle" class="small">L4</text><circle cx="130.1" cy="188.3" r="20" fill="#56B4E9" stroke="#18212F" stroke-width="2"/><text x="130.1" y="226.3" text-anchor="middle" class="small">Parts 05</text><text x="130.1" y="192.3" text-anchor="middle" class="small">L4</text><circle cx="90.0" cy="300.0" r="20" fill="#56B4E9" stroke="#18212F" stroke-width="2"/><text x="90.0" y="338.0" text-anchor="middle" class="small">Gen 06</text><text x="90.0" y="304.0" text-anchor="middle" class="small">L4</text><circle cx="130.1" cy="411.7" r="20" fill="#56B4E9" stroke="#18212F" stroke-width="2"/><text x="130.1" y="449.7" text-anchor="middle" class="small">Load 07</text><text x="130.1" y="415.7" text-anchor="middle" class="small">L4</text><circle cx="235.1" cy="480.7" r="20" fill="#56B4E9" stroke="#18212F" stroke-width="2"/><text x="235.1" y="518.7" text-anchor="middle" class="small">Load 08</text><text x="235.1" y="484.7" text-anchor="middle" class="small">L4</text><circle cx="364.9" cy="480.7" r="20" fill="#56B4E9" stroke="#18212F" stroke-width="2"/><text x="364.9" y="518.7" text-anchor="middle" class="small">Load 09</text><text x="364.9" y="484.7" text-anchor="middle" class="small">L4</text><circle cx="469.9" cy="411.7" r="20" fill="#56B4E9" stroke="#18212F" stroke-width="2"/><text x="469.9" y="449.7" text-anchor="middle" class="small">Coord 10</text><text x="469.9" y="415.7" text-anchor="middle" class="small">L4</text><line x1="54" y1="542" x2="86" y2="542" class="service"/><text x="92" y="548" class="small">service</text><line x1="285" y1="542" x2="317" y2="542" class="logistics"/><text x="323" y="548" class="small">restoration route</text><line x1="54" y1="573" x2="86" y2="573" class="comm"/><text x="92" y="579" class="small">communication</text><circle cx="301" cy="572" r="12" fill="none" stroke="#E69F00" stroke-width="3"/><text x="323" y="579" class="small">visible incident</text><rect x="620" y="78" width="552" height="235" rx="8" class="panel"/><text x="642" y="108" class="head">Authorized thermodynamic view</text><text x="648" y="142" class="label">Standardized energy</text><text x="1138" y="142" text-anchor="end" class="label">5.411</text><text x="648" y="169" class="label">Entropy anomaly</text><text x="1138" y="169" text-anchor="end" class="label">8.122</text><text x="648" y="196" class="label">Entropy slope</text><text x="1138" y="196" text-anchor="end" class="label">0.478</text><text x="648" y="223" class="label">Belief disagreement</text><text x="1138" y="223" text-anchor="end" class="label">0.205</text><text x="648" y="250" class="label">Consensus confidence</text><text x="1138" y="250" text-anchor="end" class="label">0.667</text><text x="648" y="277" class="label">Free-energy diagnostic</text><text x="1138" y="277" text-anchor="end" class="label">-0.007</text><rect x="620" y="330" width="552" height="253" rx="8" class="panel"/><text x="642" y="360" class="head">Alert, workload, and bounded response</text><text x="648" y="394" class="label">View condition</text><text x="1138" y="394" text-anchor="end" class="label">complete thermodynamic</text><text x="648" y="423" class="label">Reason</text><text x="1138" y="423" text-anchor="end" class="label">belief disagreement</text><text x="648" y="452" class="label">Queue length</text><text x="1138" y="452" text-anchor="end" class="label">2</text><text x="648" y="481" class="label">Operator workload</text><text x="1138" y="481" text-anchor="end" class="label">0.00</text><text x="648" y="510" class="label">Operator minutes</text><text x="1138" y="510" text-anchor="end" class="label">0.0</text><text x="648" y="539" class="small">Latest action</text><text x="1138" y="539" text-anchor="end" class="small">intervention applied</text><rect x="24" y="604" width="1148" height="125" rx="8" class="panel"/><text x="44" y="634" class="head">Data provenance and causal progress</text><text x="44" y="661" class="small">View hash: 687cd96b9957aa7e0c5d…</text><text x="44" y="686" class="small">Material/service events visible so far: 0 · evaluator-global and counterfactual fields excluded</text><text x="44" y="711" class="small">The display is a replay of a simulated operator condition, not evidence from a human participant.</text></svg>
